<svg width="67" height="67" viewBox="0 0 67 67" fill="none" xmlns="http://www.w3.org/2000/svg">
<rect x="0.15625" y="0.5" width="66" height="66" rx="8" fill="#FBE4E4"/>
<path d="M42.1562 21.5H37.1562C37.1562 19.3125 35.3438 17.5 33.1562 17.5C30.9062 17.5 29.1562 19.3125 29.1562 21.5H24.1562C22.4688 21.5 21.1562 22.875 21.1562 24.5V46.5C21.1562 48.1875 22.4688 49.5 24.1562 49.5H42.1562C43.7812 49.5 45.1562 48.1875 45.1562 46.5V24.5C45.1562 22.875 43.7812 21.5 42.1562 21.5ZM33.1562 20C33.9688 20 34.6562 20.6875 34.6562 21.5C34.6562 22.375 33.9688 23 33.1562 23C32.2812 23 31.6562 22.375 31.6562 21.5C31.6562 20.6875 32.2812 20 33.1562 20ZM42.1562 46.125C42.1562 46.375 41.9688 46.5 41.7812 46.5H24.5312C24.2812 46.5 24.1562 46.375 24.1562 46.125V24.875C24.1562 24.6875 24.2812 24.5 24.5312 24.5H27.1562V26.75C27.1562 27.1875 27.4688 27.5 27.9062 27.5H38.4062C38.7812 27.5 39.1562 27.1875 39.1562 26.75V24.5H41.7812C41.9688 24.5 42.1562 24.6875 42.1562 24.875V46.125Z" fill="#EF473D"/>
</svg>
