<svg width="67" height="67" viewBox="0 0 67 67" fill="none" xmlns="http://www.w3.org/2000/svg">
<rect x="0.3125" y="0.5" width="66" height="66" rx="8" fill="#E0F4EA"/>
<path d="M48.5625 41.6875C50.25 40 51.3125 37.875 51.3125 35.5C51.3125 30.5 46.5 26.375 40.25 25.6875C38.3125 22.0625 33.6875 19.5 28.3125 19.5C21.125 19.5 15.3125 24 15.3125 29.5C15.3125 31.8125 16.3125 33.9375 18.0625 35.6875C17.0625 37.5625 15.6875 39.0625 15.6875 39.125C15.3125 39.5 15.1875 40.125 15.375 40.6875C15.625 41.1875 16.125 41.5625 16.75 41.5625C20.0625 41.5625 22.75 40.25 24.5625 39.125C25.125 39.25 25.75 39.3125 26.3125 39.4375C28.3125 43 32.875 45.5 38.3125 45.5C39.5625 45.5 40.8125 45.375 42 45.125C43.8125 46.25 46.5 47.5 49.875 47.5C50.4375 47.5 50.9375 47.1875 51.1875 46.625C51.375 46.125 51.3125 45.5 50.875 45.0625C50.875 45.0625 49.5 43.5625 48.5625 41.6875ZM24 35.875L22.9375 36.5625C22.0625 37.1875 21.125 37.625 20.25 37.9375C20.375 37.625 20.5625 37.3125 20.75 37L21.6875 35.0625L20.125 33.5C19.3125 32.6875 18.3125 31.3125 18.3125 29.5C18.3125 25.75 22.875 22.5 28.3125 22.5C33.6875 22.5 38.3125 25.75 38.3125 29.5C38.3125 33.3125 33.6875 36.5 28.3125 36.5C27.25 36.5 26.25 36.4375 25.25 36.1875L24 35.875ZM46.4375 39.5L44.875 41.0625L45.875 43C46 43.3125 46.1875 43.625 46.375 43.9375C45.4375 43.625 44.5625 43.125 43.6875 42.5625L42.5625 41.875L41.375 42.1875C40.375 42.4375 39.3125 42.5 38.3125 42.5C34.9375 42.5 31.875 41.25 30.0625 39.4375C36.4375 38.75 41.3125 34.5625 41.3125 29.5C41.3125 29.3125 41.25 29.125 41.25 28.875C45.25 29.8125 48.3125 32.4375 48.3125 35.5C48.3125 37.3125 47.25 38.6875 46.4375 39.5Z" fill="#16C66D"/>
</svg>
