<svg width="66" height="67" viewBox="0 0 66 67" fill="none" xmlns="http://www.w3.org/2000/svg">
<rect y="0.5" width="66" height="66" rx="8" fill="#DDEDFB"/>
<path fill-rule="evenodd" clip-rule="evenodd" d="M17 17.5H19V47.5H49V49.5H17V17.5ZM37 24.5C37 23.9477 37.4477 23.5 38 23.5H46C46.5523 23.5 47 23.9477 47 24.5V32.5C47 33.0523 46.5523 33.5 46 33.5C45.4477 33.5 45 33.0523 45 32.5V27.3014L37.774 36.1332C37.595 36.3519 37.332 36.4847 37.0498 36.4988C36.7676 36.5128 36.4927 36.4069 36.2929 36.2071L31.1204 31.0346L23.8087 41.0882C23.4839 41.5348 22.8585 41.6336 22.4118 41.3087C21.9652 40.9839 21.8664 40.3585 22.1913 39.9118L30.1913 28.9118C30.3633 28.6753 30.6302 28.5259 30.9218 28.5031C31.2133 28.4802 31.5003 28.5861 31.7071 28.7929L36.9258 34.0115L43.8898 25.5H38C37.4477 25.5 37 25.0523 37 24.5Z" fill="#2168A7"/>
</svg>
